<svg width="6" height="10" viewBox="0 0 6 10" fill="none" xmlns="http://www.w3.org/2000/svg">
<path d="M1.18707 0.191657L5.75906 4.4814C5.9236 4.6336 6 4.80271 6 5C6 5.19729 5.91773 5.37768 5.75906 5.52424L1.18707 9.80834C1.05191 9.93236 0.893242 10 0.699314 10C0.305583 10 8.31533e-08 9.70688 9.94157e-08 9.33484C1.07301e-07 9.15445 0.0763958 8.97971 0.211557 8.85006L4.33105 5.00564L0.211558 1.14994C0.0763961 1.02029 4.70248e-07 0.851184 4.78379e-07 0.665163C4.94642e-07 0.293123 0.305583 -2.48911e-07 0.699315 -2.317e-07C0.887366 -2.2348e-07 1.05191 0.0676435 1.18707 0.191657Z" fill="white"/>
</svg>
