<svg width="30" height="28" viewBox="0 0 30 28" fill="none" xmlns="http://www.w3.org/2000/svg">
<path d="M8.88892 4.48969C9.29753 4.39292 9.58786 3.9628 9.49108 3.56495L8.85666 0.607912C8.75989 0.188551 8.35128 -0.0695175 7.93192 0.0165054C7.51255 0.0917754 7.23298 0.511137 7.319 0.930498L7.96417 3.87678C8.0502 4.29614 8.45881 4.58647 8.88892 4.48969ZM4.70606 5.64025C5.01789 5.94133 5.51252 5.94133 5.80285 5.64025C6.09318 5.32842 6.10393 4.84454 5.80285 4.54346L3.65228 2.39289C3.34045 2.08105 2.86732 2.09181 2.56624 2.39289C2.25441 2.70472 2.24365 3.17784 2.56624 3.48968L4.70606 5.64025ZM13.9428 5.15637C13.7815 5.31766 13.6524 5.50046 13.5772 5.69401C12.6739 5.07035 11.6201 5.17788 10.7922 5.99509C10.5018 6.28542 10.3298 6.64026 10.2975 7.01661C9.38355 6.4037 8.37278 6.47897 7.58782 7.26393C6.83512 8.01663 6.7491 9.0489 7.34051 9.95214C6.98566 9.97365 6.65233 10.1457 6.39426 10.393C5.51252 11.2747 5.53403 12.4791 6.42652 13.3823L7.1362 14.0812C6.77061 14.092 6.39426 14.2748 6.10393 14.5651C5.23295 15.4361 5.26521 16.7049 6.20071 17.6297L12.8567 24.2857C15.7923 27.232 19.2762 27.8234 22.287 26.2212C24.115 26.1567 25.9107 25.3395 27.4699 23.7911C30.2871 20.9738 30.7602 17.4791 28.8462 13.4683L26.3946 8.2962C25.9107 7.29619 25.115 6.70478 24.1472 6.71553C23.6203 6.71553 22.7171 6.99511 22.3407 7.82308C21.5773 7.3392 20.631 7.40372 19.9106 7.98437L17.1041 5.17788C16.1256 4.19937 14.8998 4.23162 13.9428 5.15637ZM19.7923 11.8554L14.7815 6.84457C14.8137 6.73704 14.8783 6.62951 14.9643 6.53274C15.2654 6.24241 15.674 6.26391 15.9858 6.56499L19.1794 9.76934C19.2009 9.9629 19.2547 10.1564 19.3299 10.35L19.9214 11.7586C19.9321 11.8016 19.9321 11.8339 19.9106 11.8662C19.8676 11.8984 19.8246 11.8877 19.7923 11.8554ZM3.59851 9.31772C4.00712 9.40375 4.42648 9.13493 4.50175 8.71556C4.58778 8.2962 4.32971 7.89835 3.91035 7.81233L0.942558 7.16715C0.490938 7.07038 0.0715764 7.3607 0.00705923 7.81233C-0.0467051 8.22093 0.211364 8.60804 0.619972 8.69406L3.59851 9.31772ZM23.1257 23.3179C20.4052 26.0384 17.0073 25.9739 13.9535 22.9201L7.57707 16.5436C7.28674 16.2533 7.26524 15.8662 7.54481 15.5866C7.82439 15.3071 8.22224 15.3071 8.51257 15.5974L12.4266 19.5114C12.7599 19.8448 13.2546 19.8125 13.5557 19.5114C13.8675 19.1996 13.8998 18.6942 13.5772 18.3716L7.69535 12.5006C7.41578 12.2102 7.39427 11.8231 7.67385 11.5436C7.95342 11.264 8.35128 11.264 8.6416 11.5543L14.1148 17.0275C14.4481 17.3609 14.9428 17.3286 15.2439 17.0275C15.5557 16.7157 15.5879 16.2211 15.2654 15.8877L8.8244 9.44676C8.53408 9.16718 8.52332 8.75858 8.8029 8.479C9.07172 8.21018 9.46957 8.22093 9.7599 8.51126L16.1041 14.8554C16.4267 15.1673 16.9213 15.1565 17.2331 14.8447C17.545 14.5329 17.5665 14.0275 17.2546 13.7049L11.8675 8.32846C11.5771 8.03813 11.5771 7.65103 11.846 7.37146C12.1255 7.09188 12.5234 7.10264 12.803 7.38221L20.3945 14.963C20.8246 15.4038 21.3622 15.3716 21.7171 15.006C22.0289 14.7049 22.1579 14.2855 21.9321 13.7049L20.5773 10.1564C20.416 9.72633 20.5773 9.38224 20.8999 9.2317C21.2547 9.07041 21.588 9.2317 21.7923 9.68332L24.287 14.9952C25.9322 18.5222 25.3408 21.1029 23.1257 23.3179ZM25.8462 14.2533L23.5451 9.42525C23.5236 9.32848 23.5021 9.24245 23.5021 9.13493C23.5021 8.81234 23.7601 8.51126 24.1687 8.51126C24.4376 8.51126 24.6956 8.69406 24.8354 8.99514L27.2763 14.2103C28.9322 17.7265 28.3408 20.3179 26.1257 22.5222C26.072 22.5867 26.0075 22.6405 25.943 22.705C27.3731 20.2641 27.3516 17.4254 25.8462 14.2533Z" fill="white"/>
</svg>
