<svg width="24" height="24" viewBox="0 0 24 24" fill="none" xmlns="http://www.w3.org/2000/svg">
<path d="M20.317 4.15595C18.7873 3.45407 17.147 2.93696 15.4319 2.64078C15.4007 2.63507 15.3695 2.64935 15.3534 2.67792C15.1424 3.05314 14.9087 3.54264 14.7451 3.92738C12.9004 3.65121 11.0652 3.65121 9.25832 3.92738C9.09465 3.53408 8.85248 3.05314 8.64057 2.67792C8.62448 2.65031 8.59328 2.63602 8.56205 2.64078C6.84791 2.93601 5.20756 3.45313 3.67694 4.15595C3.66368 4.16167 3.65233 4.1712 3.64479 4.18357C0.533392 8.83193 -0.31895 13.366 0.0991801 17.8439C0.101072 17.8658 0.11337 17.8868 0.130398 17.9001C2.18321 19.4077 4.17171 20.3229 6.12328 20.9295C6.15451 20.939 6.18761 20.9276 6.20748 20.9019C6.66913 20.2714 7.08064 19.6067 7.43348 18.9077C7.4543 18.8667 7.43442 18.8182 7.39186 18.802C6.73913 18.5544 6.1176 18.2525 5.51973 17.9096C5.47244 17.882 5.46865 17.8144 5.51216 17.782C5.63797 17.6877 5.76382 17.5896 5.88395 17.4906C5.90569 17.4725 5.93598 17.4687 5.96153 17.4801C9.88928 19.2734 14.1415 19.2734 18.023 17.4801C18.0485 17.4677 18.0788 17.4716 18.1015 17.4896C18.2216 17.5887 18.3475 17.6877 18.4742 17.782C18.5177 17.8144 18.5149 17.882 18.4676 17.9096C17.8697 18.2591 17.2482 18.5544 16.5945 18.801C16.552 18.8172 16.533 18.8667 16.5538 18.9077C16.9143 19.6057 17.3258 20.2705 17.7789 20.9009C17.7978 20.9276 17.8319 20.939 17.8631 20.9295C19.8241 20.3229 21.8126 19.4077 23.8654 17.9001C23.8834 17.8868 23.8948 17.8668 23.8967 17.8449C24.3971 12.6679 23.0585 8.17102 20.3482 4.18452C20.3416 4.1712 20.3303 4.16167 20.317 4.15595ZM8.02002 15.1174C6.8375 15.1174 5.86313 14.0317 5.86313 12.6984C5.86313 11.3651 6.8186 10.2795 8.02002 10.2795C9.23087 10.2795 10.1958 11.3747 10.1769 12.6984C10.1769 14.0317 9.22141 15.1174 8.02002 15.1174ZM15.9947 15.1174C14.8123 15.1174 13.8379 14.0317 13.8379 12.6984C13.8379 11.3651 14.7933 10.2795 15.9947 10.2795C17.2056 10.2795 18.1705 11.3747 18.1516 12.6984C18.1516 14.0317 17.2056 15.1174 15.9947 15.1174Z" fill="white"/>
</svg>
