<svg width="114" height="114" viewBox="0 0 114 114" fill="none" xmlns="http://www.w3.org/2000/svg">
<path d="M56.9782 102C81.6423 102 102 81.6325 102 57C102 32.3675 81.5988 12 56.9347 12C32.3142 12 12 32.3675 12 57C12 81.6325 32.3577 102 56.9782 102ZM30.7917 29.7128C35.0981 25.5783 40.405 22.4014 46.2774 20.617C43.189 23.707 40.579 28.1025 38.6216 33.412C35.5766 32.4545 32.9232 31.1925 30.7917 29.7128ZM67.7226 20.6605C73.595 22.4449 78.8584 25.5783 83.1648 29.7563C81.0333 31.236 78.4234 32.4545 75.3784 33.4555C73.421 28.1025 70.811 23.7505 67.7226 20.6605ZM44.668 34.9352C47.0604 28.5377 50.3229 23.8375 53.9333 22.1402V35.8926C50.6274 35.7621 47.5389 35.4574 44.668 34.9352ZM60.0232 22.1402C63.6336 23.8375 66.9396 28.5377 69.2885 34.9352C66.4611 35.4574 63.3291 35.7621 60.0232 35.8926V22.1402ZM19.1774 53.9536C19.7864 46.5986 22.5268 39.8095 26.7898 34.2389C29.3997 36.1973 32.8362 37.8946 36.8381 39.1567C35.7071 43.6393 35.0111 48.6441 34.7936 53.9536H19.1774ZM79.1629 53.9536C78.9889 48.6441 78.2494 43.6393 77.1184 39.1567C81.1203 37.8946 84.5568 36.1973 87.1667 34.2389C91.4297 39.8095 94.1701 46.5986 94.7791 53.9536H79.1629ZM60.0232 53.9536V41.9855C63.8946 41.8549 67.6356 41.4197 71.072 40.7234C72.0725 44.7708 72.7685 49.2534 72.9425 53.9536H60.0232ZM41.014 53.9536C41.2315 49.2534 41.884 44.7708 42.8845 40.7234C46.3644 41.4197 50.0619 41.8549 53.9333 41.9855V53.9536H41.014ZM19.1774 60.0464H34.7936C34.9676 65.4429 35.7071 70.4913 36.8816 75.0609C32.9232 76.323 29.4867 77.9768 26.8768 79.8917C22.5703 74.2776 19.7864 67.4449 19.1774 60.0464ZM41.014 60.0464H53.9333V72.2321C50.1054 72.3627 46.3644 72.7979 42.928 73.4942C41.884 69.3598 41.2315 64.7901 41.014 60.0464ZM60.0232 72.2321V60.0464H72.986C72.7685 64.7901 72.0725 69.3598 71.0285 73.4942C67.5921 72.7979 63.8946 72.3627 60.0232 72.2321ZM77.1184 75.0609C78.2494 70.4913 78.9889 65.4429 79.2064 60.0464H94.7791C94.1701 67.4449 91.3862 74.2776 87.0797 79.8917C84.4698 77.9768 81.0768 76.323 77.1184 75.0609ZM60.0232 78.3249C63.3291 78.4555 66.3741 78.7602 69.245 79.2824C66.8961 85.5493 63.6336 90.206 60.0232 91.9033V78.3249ZM44.755 79.2824C47.5824 78.7602 50.6709 78.4555 53.9333 78.3249V91.9033C50.3664 90.206 47.1039 85.5493 44.755 79.2824ZM30.9222 84.3743C33.0536 82.9381 35.6636 81.7195 38.6651 80.7621C40.579 85.9845 43.189 90.293 46.1904 93.3395C40.405 91.5986 35.1851 88.4652 30.9222 84.3743ZM75.3349 80.7621C78.3364 81.7195 80.9463 82.9381 83.0778 84.3743C78.7714 88.4652 73.5515 91.5986 67.7661 93.3395C70.811 90.293 73.3775 85.9845 75.3349 80.7621Z" fill="white"/>
</svg>
