<?xml version="1.0" encoding="utf-8"?>
<!-- Generator: Adobe Illustrator 28.1.0, SVG Export Plug-In . SVG Version: 6.00 Build 0)  -->
<svg version="1.1" id="Layer_1" xmlns="http://www.w3.org/2000/svg" xmlns:xlink="http://www.w3.org/1999/xlink" x="0px" y="0px"
	 viewBox="0 0 114 114" style="enable-background:new 0 0 114 114;" xml:space="preserve">
<style type="text/css">
	.st0{fill:#FFFFFF;}
</style>
<path class="st0" d="M57,113.4c30.9,0,56.5-25.5,56.5-56.4S87.8,0.6,56.9,0.6C26,0.6,0.6,26.1,0.6,57S26.1,113.4,57,113.4z
	 M24.1,22.8c5.4-5.2,12.1-9.2,19.4-11.4c-3.9,3.9-7.1,9.4-9.6,16C30.1,26.2,26.8,24.6,24.1,22.8z M70.4,11.4
	c7.4,2.2,14,6.2,19.4,11.4c-2.7,1.9-5.9,3.4-9.8,4.6C77.6,20.8,74.3,15.3,70.4,11.4z M41.5,29.3c3-8,7.1-13.9,11.6-16v17.2
	C49,30.4,45.1,30,41.5,29.3z M60.8,13.3c4.5,2.1,8.7,8,11.6,16c-3.5,0.7-7.5,1-11.6,1.2V13.3z M9.6,53.2c0.8-9.2,4.2-17.7,9.5-24.7
	c3.3,2.5,7.6,4.6,12.6,6.2c-1.4,5.6-2.3,11.9-2.6,18.6H9.6z M84.8,53.2c-0.2-6.7-1.1-12.9-2.6-18.6c5-1.6,9.3-3.7,12.6-6.2
	c5.3,7,8.8,15.5,9.5,24.7H84.8z M60.8,53.2v-15c4.9-0.2,9.5-0.7,13.9-1.6c1.3,5.1,2.1,10.7,2.3,16.6H60.8z M37,53.2
	c0.3-5.9,1.1-11.5,2.3-16.6c4.4,0.9,9,1.4,13.9,1.6v15H37z M9.6,60.8h19.6c0.2,6.8,1.1,13.1,2.6,18.8c-5,1.6-9.3,3.7-12.5,6.1
	C13.8,78.7,10.3,70.1,9.6,60.8z M37,60.8h16.2v15.3c-4.8,0.2-9.5,0.7-13.8,1.6C38,72.5,37.2,66.8,37,60.8z M60.8,76.1V60.8H77
	c-0.3,5.9-1.1,11.7-2.5,16.9C70.3,76.8,65.6,76.3,60.8,76.1z M82.2,79.6c1.4-5.7,2.3-12.1,2.6-18.8h19.5c-0.8,9.3-4.3,17.8-9.7,24.9
	C91.4,83.3,87.2,81.2,82.2,79.6z M60.8,83.7c4.1,0.2,8,0.5,11.6,1.2c-2.9,7.9-7,13.7-11.6,15.8V83.7z M41.6,84.9
	c3.5-0.7,7.4-1,11.5-1.2v17C48.7,98.6,44.6,92.8,41.6,84.9z M24.3,91.3c2.7-1.8,5.9-3.3,9.7-4.5c2.4,6.5,5.7,12,9.4,15.8
	C36.2,100.4,29.6,96.5,24.3,91.3z M80,86.8c3.8,1.2,7,2.7,9.7,4.5c-5.4,5.1-11.9,9.1-19.2,11.2C74.3,98.7,77.5,93.3,80,86.8z"/>
</svg>
