<svg width="156" height="42" viewBox="0 0 156 42" fill="none" xmlns="http://www.w3.org/2000/svg">
<path d="M49.688 29.336C48.112 29.336 46.808 29.036 45.776 28.436C44.752 27.828 43.988 26.968 43.484 25.856C42.98 24.736 42.728 23.408 42.728 21.872V12.2H45.008V21.248C45.008 22.016 45.068 22.76 45.188 23.48C45.308 24.2 45.528 24.844 45.848 25.412C46.176 25.98 46.648 26.432 47.264 26.768C47.888 27.104 48.696 27.272 49.688 27.272C50.688 27.272 51.496 27.104 52.112 26.768C52.728 26.432 53.196 25.98 53.516 25.412C53.844 24.836 54.068 24.188 54.188 23.468C54.308 22.748 54.368 22.008 54.368 21.248V12.2H56.648V21.872C56.648 23.408 56.396 24.736 55.892 25.856C55.388 26.968 54.62 27.828 53.588 28.436C52.564 29.036 51.264 29.336 49.688 29.336ZM60.5066 29V18.92H58.4666L58.7546 17.24H60.5066V14.456C60.5066 13.408 60.7866 12.572 61.3466 11.948C61.9066 11.316 62.7306 11 63.8186 11C64.2186 11 64.5666 11.028 64.8626 11.084C65.1666 11.14 65.4426 11.216 65.6906 11.312L65.3546 13.136C65.1626 13.064 64.9746 13.012 64.7906 12.98C64.6066 12.94 64.3946 12.92 64.1546 12.92C63.6906 12.92 63.3266 13.052 63.0626 13.316C62.7986 13.572 62.6666 14 62.6666 14.6V17.24H65.8346V18.92H62.6666V29H60.5066ZM71.8599 29.24C70.9399 29.24 70.1559 29.056 69.5079 28.688C68.8599 28.312 68.3639 27.744 68.0199 26.984C67.6839 26.224 67.5159 25.256 67.5159 24.08V17.24H69.6759V23.48C69.6759 24.728 69.8879 25.68 70.3119 26.336C70.7439 26.992 71.4439 27.32 72.4119 27.32C73.0759 27.32 73.6919 27.16 74.2599 26.84C74.8279 26.52 75.2199 26.008 75.4359 25.304L75.1239 26.48V17.24H77.2839V29H75.3639L74.9319 26.696L75.5079 27.08C75.1159 27.808 74.6359 28.352 74.0679 28.712C73.5079 29.064 72.7719 29.24 71.8599 29.24ZM80.1978 29V11H82.3578V22.544L86.6778 17.24H89.3178L84.6378 22.712L89.4378 29H86.7978L82.3578 23.024V29H80.1978ZM105.898 24.464H98.6983V22.4H105.898V24.464ZM101.962 14.432H102.634L97.4743 29H95.0743L101.098 12.2H103.498L109.522 29H107.122L101.962 14.432ZM111.159 29V17.24H112.935L113.199 19.184C113.799 18.44 114.371 17.892 114.915 17.54C115.467 17.18 116.055 17 116.679 17C116.879 17 117.063 17.024 117.231 17.072L117.015 19.448C116.911 19.424 116.799 19.408 116.679 19.4C116.567 19.384 116.439 19.376 116.295 19.376C115.671 19.376 115.095 19.516 114.567 19.796C114.047 20.068 113.679 20.368 113.463 20.696V29H111.159ZM123.364 35C122.292 35 121.332 34.868 120.484 34.604C119.644 34.34 118.98 33.948 118.492 33.428C118.012 32.908 117.772 32.264 117.772 31.496C117.772 30.856 117.952 30.304 118.312 29.84C118.68 29.384 119.18 29.016 119.812 28.736C119.436 28.552 119.148 28.336 118.948 28.088C118.756 27.832 118.66 27.552 118.66 27.248C118.66 26.888 118.768 26.564 118.984 26.276C119.208 25.98 119.564 25.736 120.052 25.544C119.396 25.136 118.892 24.588 118.54 23.9C118.188 23.204 118.012 22.432 118.012 21.584C118.012 20.728 118.204 19.956 118.588 19.268C118.972 18.572 119.524 18.02 120.244 17.612C120.972 17.204 121.844 17 122.86 17C123.404 17 123.916 17.08 124.396 17.24C124.884 17.4 125.332 17.624 125.74 17.912C126.1 17.704 126.524 17.532 127.012 17.396C127.508 17.26 128.06 17.192 128.668 17.192C128.708 17.192 128.74 17.192 128.764 17.192C128.796 17.192 128.828 17.192 128.86 17.192L128.596 18.632C128.5 18.632 128.408 18.632 128.32 18.632C128.232 18.632 128.14 18.632 128.044 18.632C127.964 18.632 127.78 18.644 127.492 18.668C127.204 18.692 126.94 18.736 126.7 18.8C127.028 19.184 127.28 19.616 127.456 20.096C127.64 20.568 127.732 21.064 127.732 21.584C127.732 22.48 127.536 23.284 127.144 23.996C126.76 24.7 126.204 25.26 125.476 25.676C124.748 26.084 123.876 26.288 122.86 26.288C122.572 26.288 122.296 26.272 122.032 26.24C121.768 26.2 121.516 26.144 121.276 26.072C120.908 26.192 120.724 26.4 120.724 26.696C120.724 26.872 120.828 27.028 121.036 27.164C121.244 27.292 121.58 27.392 122.044 27.464L125.188 27.968C126.46 28.168 127.44 28.536 128.128 29.072C128.824 29.608 129.172 30.368 129.172 31.352C129.172 32.168 128.932 32.844 128.452 33.38C127.98 33.924 127.308 34.328 126.436 34.592C125.564 34.864 124.54 35 123.364 35ZM123.556 33.08C124.66 33.08 125.508 32.936 126.1 32.648C126.692 32.368 126.988 31.952 126.988 31.4C126.988 30.968 126.8 30.628 126.424 30.38C126.056 30.132 125.524 29.944 124.828 29.816L121.48 29.252C121.04 29.444 120.656 29.7 120.328 30.02C120 30.348 119.836 30.728 119.836 31.16C119.836 31.832 120.172 32.32 120.844 32.624C121.524 32.928 122.428 33.08 123.556 33.08ZM122.86 24.56C123.772 24.56 124.468 24.288 124.948 23.744C125.428 23.192 125.668 22.48 125.668 21.608C125.668 20.768 125.428 20.08 124.948 19.544C124.468 19 123.772 18.728 122.86 18.728C121.948 18.728 121.256 19 120.784 19.544C120.312 20.08 120.076 20.768 120.076 21.608C120.076 22.48 120.312 23.192 120.784 23.744C121.256 24.288 121.948 24.56 122.86 24.56ZM134.79 29.24C133.87 29.24 133.086 29.056 132.438 28.688C131.79 28.312 131.294 27.744 130.95 26.984C130.614 26.224 130.446 25.256 130.446 24.08V17.24H132.606V23.48C132.606 24.728 132.818 25.68 133.242 26.336C133.674 26.992 134.374 27.32 135.342 27.32C136.006 27.32 136.622 27.16 137.19 26.84C137.758 26.52 138.15 26.008 138.366 25.304L138.054 26.48V17.24H140.214V29H138.294L137.862 26.696L138.438 27.08C138.046 27.808 137.566 28.352 136.998 28.712C136.438 29.064 135.702 29.24 134.79 29.24ZM136.662 14.816V12.896H138.726V14.816H136.662ZM132.054 14.816V12.896H134.118V14.816H132.054ZM143.152 29V17.24H144.832L145.264 19.496L144.424 19.136C145.216 18.256 145.988 17.68 146.74 17.408C147.5 17.136 148.24 17 148.96 17C150.68 17 151.908 17.496 152.644 18.488C153.388 19.48 153.76 20.824 153.76 22.52V29H151.6V22.52C151.6 21.272 151.368 20.36 150.904 19.784C150.44 19.208 149.648 18.92 148.528 18.92C147.736 18.92 147.008 19.096 146.344 19.448C145.688 19.792 145.256 20.344 145.048 21.104L145.312 19.784V29H143.152Z" fill="white"/>
<path d="M20.7181 33.6766C28.0975 33.6766 34.1884 27.5857 34.1884 20.2193C34.1884 12.8529 28.0845 6.76196 20.7051 6.76196C13.3387 6.76196 7.26074 12.8529 7.26074 20.2193C7.26074 27.5857 13.3517 33.6766 20.7181 33.6766ZM12.8831 12.059C14.1716 10.8226 15.7594 9.87251 17.5164 9.3389C16.5924 10.263 15.8115 11.5774 15.2258 13.1653C14.3148 12.8789 13.5209 12.5015 12.8831 12.059ZM23.9327 9.35191C25.6897 9.88552 27.2645 10.8226 28.553 12.072C27.9153 12.5145 27.1344 12.8789 26.2233 13.1783C25.6377 11.5774 24.8568 10.276 23.9327 9.35191ZM17.0349 13.6208C17.7507 11.7076 18.7268 10.302 19.807 9.79442V13.9071C18.8179 13.8681 17.8939 13.777 17.0349 13.6208ZM21.6291 9.79442C22.7093 10.302 23.6985 11.7076 24.4013 13.6208C23.5553 13.777 22.6182 13.8681 21.6291 13.9071V9.79442ZM9.40819 19.3083C9.5904 17.1088 10.4103 15.0784 11.6858 13.4125C12.4667 13.9982 13.4948 14.5058 14.6922 14.8832C14.3538 16.2237 14.1456 17.7204 14.0805 19.3083H9.40819ZM27.3556 19.3083C27.3036 17.7204 27.0823 16.2237 26.7439 14.8832C27.9413 14.5058 28.9695 13.9982 29.7504 13.4125C31.0258 15.0784 31.8457 17.1088 32.0279 19.3083H27.3556ZM21.6291 19.3083V15.7292C22.7874 15.6901 23.9067 15.56 24.9349 15.3517C25.2342 16.5621 25.4424 17.9027 25.4945 19.3083H21.6291ZM15.9416 19.3083C16.0067 17.9027 16.2019 16.5621 16.5013 15.3517C17.5425 15.56 18.6487 15.6901 19.807 15.7292V19.3083H15.9416ZM9.40819 21.1303H14.0805C14.1326 22.7442 14.3538 24.2539 14.7052 25.6204C13.5209 25.9979 12.4927 26.4924 11.7118 27.0651C10.4233 25.3862 9.5904 23.3429 9.40819 21.1303ZM15.9416 21.1303H19.807V24.7745C18.6617 24.8135 17.5425 24.9437 16.5143 25.1519C16.2019 23.9155 16.0067 22.5489 15.9416 21.1303ZM21.6291 24.7745V21.1303H25.5075C25.4424 22.5489 25.2342 23.9155 24.9219 25.1519C23.8937 24.9437 22.7874 24.8135 21.6291 24.7745ZM26.7439 25.6204C27.0823 24.2539 27.3036 22.7442 27.3686 21.1303H32.0279C31.8457 23.3429 31.0128 25.3862 29.7243 27.0651C28.9434 26.4924 27.9283 25.9979 26.7439 25.6204ZM21.6291 26.5966C22.6182 26.6356 23.5293 26.7267 24.3882 26.8829C23.6854 28.757 22.7093 30.1496 21.6291 30.6572V26.5966ZM17.0609 26.8829C17.9069 26.7267 18.8309 26.6356 19.807 26.5966V30.6572C18.7398 30.1496 17.7637 28.757 17.0609 26.8829ZM12.9222 28.4056C13.5599 27.9761 14.3408 27.6117 15.2388 27.3254C15.8115 28.8872 16.5924 30.1756 17.4904 31.0867C15.7594 30.5661 14.1976 29.629 12.9222 28.4056ZM26.2103 27.3254C27.1083 27.6117 27.8892 27.9761 28.527 28.4056C27.2385 29.629 25.6767 30.5661 23.9457 31.0867C24.8568 30.1756 25.6247 28.8872 26.2103 27.3254Z" fill="white"/>
</svg>
